<svg width="1201" height="1201" viewBox="0 0 1201 1201" fill="none" xmlns="http://www.w3.org/2000/svg">
<path d="M560.437 73.6209C583.245 48.6024 623.082 48.6024 645.89 73.6209V73.6209C663.694 93.1512 692.785 97.9925 715.823 85.0432V85.0432C744.705 68.8089 781.295 80.6557 795.181 110.738L797.137 114.974C808.181 138.898 834.025 152.306 859.944 147.557V147.557C892.324 141.623 923.101 163.931 927.539 196.55L928.474 203.42C932.057 229.756 952.514 250.61 978.776 254.699V254.699C1011.67 259.819 1034.14 290.707 1028.87 323.58L1027.84 330.044C1023.56 356.732 1036.76 383.178 1060.66 395.801V395.801C1090.83 411.738 1102.87 448.774 1087.82 479.399L1086.2 482.706C1074.06 507.405 1078.66 537.055 1097.71 556.92V556.92C1122 582.261 1122 622.245 1097.71 647.585V647.585C1078.66 667.451 1074.06 697.1 1086.2 721.8L1087.82 725.107C1102.87 755.732 1090.83 792.768 1060.66 808.705V808.705C1036.76 821.328 1023.56 847.774 1027.84 874.462L1028.87 880.926C1034.14 913.799 1011.67 944.686 978.776 949.807V949.807C952.514 953.895 932.057 974.75 928.474 1001.09L927.539 1007.96C923.101 1040.58 892.324 1062.88 859.944 1056.95V1056.95C834.025 1052.2 808.181 1065.61 797.137 1089.53L795.181 1093.77C781.295 1123.85 744.705 1135.7 715.823 1119.46V1119.46C692.785 1106.51 663.694 1111.35 645.89 1130.88V1130.88C623.082 1155.9 583.245 1155.9 560.437 1130.88V1130.88C542.633 1111.35 513.542 1106.51 490.504 1119.46V1119.46C461.622 1135.7 425.032 1123.85 411.146 1093.77L409.19 1089.53C398.147 1065.61 372.302 1052.2 346.383 1056.95V1056.95C314.003 1062.88 283.226 1040.58 278.788 1007.96L277.853 1001.09C274.271 974.75 253.813 953.895 227.551 949.807V949.807C194.656 944.686 172.192 913.799 177.456 880.926L178.491 874.462C182.765 847.774 169.563 821.328 145.663 808.705V808.705C115.493 792.768 103.461 755.732 118.505 725.107L120.129 721.8C132.263 697.1 127.665 667.451 108.621 647.585V647.585C84.329 622.245 84.329 582.261 108.621 556.92V556.92C127.665 537.055 132.263 507.405 120.129 482.706L118.505 479.398C103.461 448.774 115.493 411.738 145.663 395.801V395.801C169.563 383.178 182.765 356.732 178.491 330.044L177.456 323.58C172.192 290.707 194.656 259.819 227.551 254.699V254.699C253.813 250.61 274.271 229.756 277.853 203.42L278.788 196.549C283.226 163.931 314.003 141.623 346.383 147.557V147.557C372.302 152.306 398.147 138.898 409.19 114.974L411.146 110.738C425.032 80.6557 461.622 68.8089 490.504 85.0432V85.0432C513.542 97.9925 542.633 93.1512 560.437 73.6209V73.6209Z" fill="#7BC0F1" fill-opacity="0.1"/>
<path d="M565.98 78.6738C585.813 56.9183 620.514 56.9183 640.347 78.6738C660.478 100.756 693.382 106.26 719.498 91.5811C744.564 77.4915 776.32 87.7733 788.372 113.881L790.328 118.117C802.807 145.15 832.01 160.3 861.296 154.934C889.469 149.772 916.247 169.18 920.108 197.561L921.042 204.432C925.073 234.054 948.083 257.511 977.623 262.109C1006.41 266.591 1026.07 293.624 1021.47 322.395L1020.43 328.857C1015.65 358.718 1030.42 388.308 1057.16 402.433C1083.74 416.474 1094.35 449.108 1081.09 476.092L1079.47 479.399C1065.94 506.927 1071.07 539.971 1092.29 562.11C1113.8 584.549 1113.8 619.957 1092.29 642.396C1071.07 664.535 1065.94 697.58 1079.47 725.107L1081.09 728.414C1094.35 755.398 1083.74 788.032 1057.16 802.073C1030.42 816.198 1015.65 845.787 1020.43 875.648L1021.47 882.111C1026.07 910.881 1006.41 937.915 977.623 942.396C948.083 946.995 925.073 970.452 921.042 1000.07L920.108 1006.95C916.247 1035.33 889.469 1054.73 861.296 1049.57C832.01 1044.21 802.807 1059.36 790.328 1086.39L788.372 1090.62C776.32 1116.73 744.564 1127.01 719.498 1112.92C693.382 1098.25 660.478 1103.75 640.347 1125.83C620.514 1147.59 585.813 1147.59 565.98 1125.83C545.85 1103.75 512.945 1098.25 486.83 1112.92C461.763 1127.01 430.007 1116.73 417.956 1090.62L416 1086.39C403.521 1059.36 374.318 1044.21 345.031 1049.57C316.858 1054.73 290.08 1035.33 286.219 1006.95L285.285 1000.07C281.255 970.452 258.244 946.995 228.705 942.396C199.915 937.915 180.255 910.881 184.862 882.111L185.897 875.648C190.679 845.787 175.907 816.198 149.167 802.073C122.583 788.032 111.982 755.398 125.237 728.414L126.861 725.107C140.383 697.58 135.259 664.535 114.036 642.396C92.5247 619.957 92.5247 584.549 114.036 562.11C135.259 539.971 140.383 506.926 126.861 479.398L125.237 476.092C111.982 449.108 122.583 416.474 149.167 402.433C175.907 388.308 190.679 358.718 185.897 328.857L184.862 322.395C180.255 293.624 199.915 266.591 228.705 262.109C258.244 257.511 281.255 234.054 285.285 204.432L286.219 197.561C290.08 169.18 316.858 149.772 345.031 154.934C374.318 160.3 403.521 145.15 416 118.117L417.956 113.881C430.007 87.7733 461.763 77.4915 486.83 91.5811C512.945 106.26 545.85 100.756 565.98 78.6738Z" stroke="#46B2FF" stroke-opacity="0.8" stroke-width="20"/>
</svg>
