<svg width="1201" height="1201" viewBox="0 0 1201 1201" fill="none" xmlns="http://www.w3.org/2000/svg">
<path d="M550.084 104.996C582.55 84.6635 623.777 84.6635 656.243 104.996L716.898 142.985C733.315 153.267 752.364 158.559 771.731 158.22L844.104 156.95C883.66 156.257 919.906 178.948 936.563 214.834L962.411 270.524C971.083 289.208 985.314 304.758 1003.16 315.048L1057.46 346.368C1093.83 367.342 1113.22 408.797 1106.02 450.155L1096.88 502.635C1093.15 524.04 1096.49 546.077 1106.4 565.412L1130.85 613.101C1150.33 651.098 1143.53 697.269 1113.93 728.041L1074.32 769.218C1059.56 784.564 1050.08 804.222 1047.27 825.33L1039.84 881.064C1034.45 921.51 1005.03 954.624 965.494 964.734L899.248 981.676C879.982 986.603 862.623 997.162 849.388 1012L804.74 1062.07C779.021 1090.92 738.987 1102.36 701.911 1091.46L631.356 1070.73C612.95 1065.32 593.377 1065.32 574.971 1070.73L504.416 1091.46C467.341 1102.36 427.306 1090.92 401.587 1062.07L356.939 1012C343.704 997.162 326.345 986.603 307.08 981.676L240.833 964.734C201.302 954.624 171.878 921.51 166.487 881.064L159.058 825.33C156.245 804.222 146.767 784.564 132.005 769.217L92.3978 728.041C62.7979 697.269 56.0013 651.098 75.4781 613.101L99.9233 565.412C109.834 546.077 113.179 524.04 109.45 502.635L100.308 450.155C93.1034 408.797 112.498 367.342 148.865 346.368L203.17 315.048C221.014 304.758 235.244 289.208 243.916 270.524L269.764 214.834C286.421 178.948 322.667 156.257 362.224 156.95L434.596 158.22C453.963 158.559 473.012 153.267 489.429 142.985L550.084 104.996Z" fill="#CFB7E1" fill-opacity="0.1"/>
<path d="M554.065 111.353C584.095 92.5445 622.232 92.5445 652.262 111.353L712.917 149.342C730.565 160.394 751.043 166.084 771.863 165.719L844.235 164.449C880.824 163.807 914.352 184.797 929.759 217.991L955.608 273.682C964.93 293.767 980.228 310.482 999.41 321.545L1053.72 352.865C1087.35 372.266 1105.29 410.612 1098.63 448.868L1089.49 501.348C1085.48 524.358 1089.08 548.048 1099.73 568.833L1124.18 616.522C1142.19 651.669 1135.9 694.378 1108.52 722.842L1068.92 764.019C1053.05 780.516 1042.86 801.649 1039.83 824.339L1032.41 880.073C1027.42 917.486 1000.2 948.116 963.635 957.468L897.389 974.409C876.679 979.706 858.018 991.057 843.791 1007.01L799.142 1057.08C775.352 1083.76 738.32 1094.35 704.025 1084.27L633.471 1063.54C613.685 1057.72 592.642 1057.72 572.856 1063.54L502.302 1084.27C468.007 1094.35 430.975 1083.76 407.185 1057.08L362.537 1007.01C348.309 991.057 329.648 979.706 308.938 974.409L242.692 957.468C206.125 948.116 178.908 917.486 173.921 880.073L166.493 824.339C163.468 801.649 153.28 780.516 137.411 764.019L97.8032 722.842C70.4234 694.377 64.1368 651.669 82.1528 616.522L106.597 568.833C117.252 548.048 120.847 524.358 116.838 501.348L107.697 448.868C101.033 410.612 118.973 372.266 152.612 352.865L206.917 321.545C226.099 310.482 241.397 293.767 250.719 273.682L276.568 217.991C291.975 184.797 325.503 163.807 362.092 164.449L434.464 165.719C455.284 166.084 475.762 160.394 493.41 149.342L554.065 111.353Z" stroke="#C79CE8" stroke-opacity="0.9" stroke-width="20"/>
</svg>
