<svg width="1201" height="1201" viewBox="0 0 1201 1201" fill="none" xmlns="http://www.w3.org/2000/svg">
<path d="M561.875 122.678C587.961 110.089 618.366 110.089 644.453 122.678L741.207 169.371C750.384 173.799 760.214 176.723 770.32 178.029L876.87 191.799C907.25 195.725 933.872 214.058 948.374 241.04L992.773 323.648C998.109 333.576 1005.17 342.475 1013.62 349.929L1083.64 411.665C1108.86 433.904 1120.45 467.821 1114.1 500.844L1098.16 583.83C1095.89 595.671 1095.89 607.835 1098.16 619.675L1114.1 702.662C1120.45 735.685 1108.86 769.601 1083.64 791.841L1013.62 853.577C1005.17 861.031 998.109 869.93 992.773 879.858L948.374 962.466C933.872 989.448 907.25 1007.78 876.87 1011.71L770.32 1025.48C760.214 1026.78 750.384 1029.71 741.207 1034.14L644.453 1080.83C618.366 1093.42 587.961 1093.42 561.874 1080.83L465.12 1034.14C455.943 1029.71 446.113 1026.78 436.007 1025.48L329.457 1011.71C299.077 1007.78 272.455 989.448 257.953 962.466L213.554 879.858C208.218 869.93 201.158 861.031 192.704 853.577L122.687 791.841C97.4645 769.601 85.8782 735.685 92.2222 702.662L108.165 619.675C110.439 607.835 110.439 595.67 108.165 583.83L92.2222 500.844C85.8782 467.821 97.4646 433.904 122.687 411.665L192.704 349.929C201.158 342.475 208.218 333.576 213.554 323.648L257.953 241.04C272.455 214.058 299.077 195.725 329.457 191.799L436.007 178.029C446.113 176.723 455.943 173.799 465.12 169.371L561.875 122.678Z" fill="#B5A94C" fill-opacity="0.1"/>
<path d="M565.134 129.433C589.161 117.838 617.166 117.838 641.193 129.433L737.948 176.125C747.849 180.903 758.455 184.058 769.359 185.467L875.909 199.236C903.89 202.852 928.411 219.739 941.768 244.591L986.167 327.198C991.924 337.91 999.541 347.512 1008.66 355.555L1078.68 417.29C1101.91 437.774 1112.58 469.013 1106.74 499.429L1090.8 582.415C1088.34 595.19 1088.34 608.316 1090.8 621.091L1106.74 704.077C1112.58 734.493 1101.91 765.732 1078.68 786.216L1008.66 847.951C999.541 855.994 991.924 865.596 986.167 876.308L941.768 958.915C928.411 983.767 903.89 1000.65 875.909 1004.27L769.359 1018.04C758.455 1019.45 747.849 1022.6 737.948 1027.38L641.193 1074.07C617.166 1085.67 589.161 1085.67 565.134 1074.07L468.379 1027.38C458.478 1022.6 447.872 1019.45 436.968 1018.04L330.418 1004.27C302.437 1000.65 277.916 983.767 264.559 958.915L220.161 876.308C214.403 865.596 206.786 855.994 197.665 847.951L127.647 786.216C104.416 765.732 93.7444 734.493 99.5874 704.077L115.53 621.091C117.984 608.316 117.984 595.19 115.53 582.415L99.5874 499.429C93.7444 469.013 104.416 437.774 127.647 417.29L197.665 355.555C206.786 347.512 214.403 337.91 220.161 327.198L264.559 244.591C277.916 219.739 302.437 202.852 330.418 199.236L436.968 185.467C447.872 184.058 458.478 180.903 468.379 176.125L565.134 129.433Z" stroke="#B5A94C" stroke-opacity="0.8" stroke-width="20"/>
</svg>
