<svg width="677" height="421" viewBox="0 0 677 421" fill="none" xmlns="http://www.w3.org/2000/svg">
<path d="M338.006 0C450.509 0 561.035 29.5454 658.475 85.6719C675.225 95.3201 680.982 116.72 671.334 133.47C661.685 150.219 640.286 155.976 623.536 146.328C536.729 96.3266 438.253 70 338.006 70C237.759 70 139.282 96.3266 52.4753 146.328C35.7255 155.976 14.3257 150.219 4.67746 133.47C-4.97061 116.72 0.786158 95.3201 17.5359 85.6719C114.976 29.5454 225.502 0 338.006 0Z" fill="#8985A8"/>
<path d="M338.006 157C423.221 157 506.911 179.697 580.66 222.778C597.351 232.528 602.977 253.964 593.227 270.654C583.477 287.345 562.042 292.972 545.351 283.222C482.283 246.38 410.774 227 338.006 227C265.238 227 193.728 246.38 130.66 283.222C113.969 292.972 92.5341 287.345 82.784 270.654C73.0339 253.964 78.6606 232.528 95.3514 222.778C169.1 179.697 252.791 157 338.006 157Z" fill="#8985A8"/>
<path d="M338.006 312C395.996 312 452.998 327.01 503.287 355.563C520.096 365.108 525.986 386.472 516.442 403.281C506.898 420.091 485.534 425.981 468.724 416.437C429.018 393.891 383.932 382 338.006 382C292.079 382 246.993 393.891 207.287 416.437C190.477 425.981 169.113 420.091 159.569 403.281C150.025 386.472 155.915 365.108 172.724 355.563C223.013 327.01 280.015 312 338.006 312Z" fill="#8985A8"/>
</svg>
