<svg width="1912" height="1911" viewBox="0 0 1912 1911" fill="none" xmlns="http://www.w3.org/2000/svg">
<path d="M901.2 225.876C740.033 255.446 620.267 368.55 585.89 523.051C582.932 535.618 579.606 555.578 578.127 567.036C575.909 588.104 575.539 588.104 562.232 590.322C477.213 603.628 423.614 625.436 369.275 668.681C339.703 692.337 309.762 724.124 311.24 730.408C311.61 732.256 326.766 733.734 344.878 733.365C377.038 733.365 377.777 732.995 391.085 720.428C419.178 693.815 470.929 665.355 515.287 652.418C535.617 646.504 566.298 645.765 913.768 644.656L1289.7 643.917V701.208V758.499H1315.58H1341.45V701.208V643.917H1357.35C1408.73 643.917 1491.9 679.031 1536.63 719.689C1551.04 732.256 1552.15 732.626 1585.05 733.734C1607.97 734.104 1618.69 732.995 1618.69 730.408C1618.69 723.755 1573.59 679.4 1547.72 660.18C1519.99 639.851 1477.85 618.043 1444.95 606.955C1424.99 600.671 1361.78 588.474 1346.26 588.474C1344.04 588.474 1341.08 578.864 1339.6 565.188C1321.49 405.142 1208.01 275.036 1050.17 233.269C1018.38 224.767 931.142 220.702 901.2 225.876ZM931.142 433.233V588.474H781.434H631.726V574.428C631.726 554.838 645.034 502.352 656.493 476.109C692.349 394.423 762.582 327.152 844.274 296.843C868.671 287.603 905.267 278.732 921.161 278.362L931.142 277.993V433.233ZM1027.25 283.167C1040.56 286.124 1063.48 293.147 1077.89 298.691L1104.88 309.041L1105.62 438.778L1106.73 568.145L1133.71 569.253L1160.32 570.362V456.519V343.046L1184.72 366.702C1242.02 422.884 1278.24 493.851 1284.53 561.861L1287.11 588.474H1136.67H986.589V433.233V277.993H995.091C999.527 277.993 1013.94 280.58 1027.25 283.167Z" fill="#C37DF2"/>
<path d="M582.563 657.223C581.085 658.702 579.976 681.988 579.976 709.34V758.499H607.699H635.793L634.684 707.491L633.575 656.853L609.548 655.745C596.24 655.005 584.042 655.745 582.563 657.223Z" fill="#C37DF2"/>
<path d="M933.73 657.593C932.251 658.702 931.142 681.988 931.142 709.34V758.499H958.866H986.589V706.752V655.005H961.453C947.407 655.005 934.839 656.114 933.73 657.593Z" fill="#C37DF2"/>
<path d="M1109.68 657.223C1105.99 658.702 1104.88 672.747 1104.88 708.97V758.499H1132.6H1160.69L1159.59 707.491L1158.48 656.853L1136.3 656.114C1124.1 655.745 1111.9 656.484 1109.68 657.223Z" fill="#C37DF2"/>
<path d="M635.423 920.023C635.423 1023.52 636.162 1043.85 640.228 1039.41C642.816 1036.45 657.971 1019.45 673.497 1002.08L701.96 970.292V937.395L702.329 904.499L709.722 913.74C717.485 922.611 803.613 1018.34 884.566 1107.79C907.115 1132.19 926.706 1152.88 928.185 1153.25C930.033 1153.99 930.773 1074.15 930.403 975.836L929.294 797.309L897.134 796.201L864.605 795.092L863.866 893.78L862.757 992.099L796.22 911.522C759.625 867.168 723.399 823.183 715.637 813.203L701.22 795.461H668.322H635.423V920.023Z" fill="#C37DF2"/>
<path d="M942.231 828.727V861.993H1045.73H1149.23V828.727V795.461H1045.73H942.231V828.727Z" fill="#C37DF2"/>
<path d="M1161.8 800.266C1160.69 803.223 1160.32 817.638 1161.06 832.793L1162.17 860.145L1236.1 861.253C1306.34 861.993 1310.4 862.362 1316.69 869.755C1324.82 879.735 1324.82 895.998 1316.32 903.76C1310.77 908.935 1297.83 910.043 1233.88 910.783L1158.48 911.891V991.36V1070.83L1191.01 1071.94L1223.16 1073.05V1024.63V976.575H1240.91L1258.28 976.945L1290.81 1024.63L1323.34 1072.68H1359.57H1395.42L1517.41 964.747C1584.31 905.608 1651.59 845.729 1666.74 832.053L1694.47 806.55H1650.85H1606.86L1562.13 847.578C1382.11 1011.69 1374.35 1018.34 1369.18 1013.17C1366.59 1010.21 1358.46 998.752 1351.06 987.294L1338.13 966.226L1351.8 956.985C1371.76 943.679 1387.29 913.74 1387.29 887.866C1387.29 859.405 1380.27 842.403 1361.41 823.183C1336.65 798.788 1321.86 795.461 1235.36 795.461C1178.81 795.461 1163.28 796.57 1161.8 800.266Z" fill="#C37DF2"/>
<path d="M84.6455 864.58V922.98L120.501 922.241L156.727 921.871V864.95V808.398L120.871 807.289L84.6455 806.18V864.58Z" fill="#C37DF2"/>
<path d="M280.56 886.018V965.486H182.603H84.6455V1020.93V1076L116.805 1102.25L149.334 1128.12L150.443 1078.22L151.552 1028.32H215.871H280.56V1052.35V1076.37H315.676H350.793V941.461V806.55H315.676H280.56V886.018Z" fill="#C37DF2"/>
<path d="M1729.95 856.448C1701.12 883.8 1675.62 906.347 1674.14 906.347C1672.66 906.347 1666 900.063 1660.09 892.301L1648.63 878.625L1628.3 898.954C1616.84 910.043 1607.6 920.762 1607.6 922.61C1607.6 924.828 1612.77 931.481 1618.69 937.765L1630.15 949.592L1568.79 1007.62L1507.79 1066.02V1101.14C1507.79 1121.84 1509.27 1135.51 1511.49 1134.77C1513.34 1134.03 1548.46 1102.98 1589.49 1065.28C1630.89 1027.58 1666.37 996.904 1668.96 996.904C1671.18 996.904 1688.55 1013.91 1707.4 1034.61L1741.78 1072.68H1784.29H1826.8L1814.23 1057.89C1807.21 1050.13 1782.07 1022.78 1758.05 997.273L1714.43 951.441L1734.02 933.329C1744.74 922.98 1776.16 894.519 1803.51 869.385C1830.87 844.62 1857.48 820.225 1862.66 815.42L1871.9 806.549H1827.54H1783.18L1729.95 856.448Z" fill="#C37DF2"/>
<path d="M581.084 839.076L550.403 863.841V929.633V995.426L533.03 1003.19C512.33 1012.43 467.972 1014.28 446.162 1006.51L432.116 1001.71V928.155V854.6H398.478H365.209L366.318 937.026L367.427 1019.82L377.408 1034.61C405.871 1077.85 499.022 1090.05 565.189 1059.37C588.477 1048.65 600.306 1038.67 608.808 1022.78C613.983 1013.54 615.092 995.795 615.831 912.631C616.571 858.297 615.831 813.942 613.983 814.312C612.504 814.312 597.719 825.4 581.084 839.076Z" fill="#C37DF2"/>
<path d="M1012.46 993.208V1073.05L1044.99 1071.94L1077.15 1070.83L1078.26 992.099L1079 913.74H1045.73H1012.46V993.208Z" fill="#C37DF2"/>
<path d="M576.279 1209.44C576.279 1268.57 579.975 1264.14 536.357 1255.27C479.8 1243.81 425.462 1216.46 385.17 1179.5L369.275 1165.08H336.007C304.587 1165.08 302.739 1165.45 306.065 1172.1C312.719 1183.93 362.252 1231.61 386.279 1248.62C431.376 1280.77 499.022 1306.65 550.773 1311.45L575.17 1314.04L579.236 1349.52C590.326 1443.04 626.921 1519.55 693.088 1585.34C745.209 1637.46 800.656 1669.61 870.15 1688.46C910.442 1699.18 1010.62 1698.44 1052.76 1686.99C1118.55 1668.87 1174.37 1635.98 1225.38 1584.97C1291.55 1518.81 1327.04 1445.62 1338.87 1351L1343.3 1314.78L1372.13 1312.19C1454.57 1304.8 1533.67 1265.25 1594.66 1201.67C1609.82 1185.78 1622.39 1171 1622.39 1168.78C1622.39 1166.56 1609.82 1165.08 1590.97 1165.08H1559.18L1536.26 1184.67C1491.9 1222.37 1447.91 1243.81 1392.09 1255.27C1367.7 1260.44 1317.06 1261.18 997.679 1261.18H631.726V1209.44V1157.69H604.003H576.279V1209.44ZM1286.37 1336.59C1284.16 1386.11 1258.65 1457.08 1226.49 1503.65C1205.79 1533.59 1156.63 1579.8 1124.47 1598.65C1088.98 1619.71 1041.3 1637.09 1009.14 1640.41L986.589 1643V1477.78V1312.93L1137.04 1313.67L1287.48 1314.78L1286.37 1336.59ZM931.142 1479.26V1641.89H918.944C901.201 1641.89 855.364 1629.32 830.598 1617.87L809.158 1608.26V1480.74V1353.59H783.282H757.407V1460.78C757.407 1536.55 756.298 1567.97 753.341 1567.97C747.057 1567.97 707.874 1526.2 691.609 1502.54C659.08 1454.49 636.532 1394.62 632.835 1345.46L630.617 1316.63H781.065H931.142V1479.26Z" fill="#C37DF2"/>
<path d="M746.317 1203.89V1250.09H772.193H798.068V1203.89V1157.69H772.193H746.317V1203.89Z" fill="#C37DF2"/>
<path d="M928.185 1202.78L929.294 1248.25L956.278 1249.36L982.893 1250.46V1203.89V1157.69H955.169H927.076L928.185 1202.78Z" fill="#C37DF2"/>
<path d="M1289.7 1203.89V1250.09H1315.58H1341.45V1203.89V1157.69H1315.58H1289.7V1203.89Z" fill="#C37DF2"/>
<g opacity="0.4">
<mask id="path-17-outside-1_203_78" maskUnits="userSpaceOnUse" x="0" y="0" width="1912" height="1911" fill="black">
<rect fill="white" width="1912" height="1911"/>
<path d="M956 136C1181.55 136 1364.56 318.132 1365.99 543.349L1366 546L1368.65 546.009C1593.87 547.433 1776 730.156 1776 955.352C1776 1181.43 1592.44 1364.7 1366 1364.7C1365.57 1364.7 1365.13 1364.7 1364.7 1364.7C1364.7 1364.7 1364.7 1364.7 1364.7 1364.7C1364.7 1591.14 1181.43 1774.7 955.352 1774.7C730.156 1774.7 547.433 1592.57 546.009 1367.35L546 1364.7L543.349 1364.69C318.132 1363.27 136 1180.26 136 954.703C136 728.266 319.563 544.703 546 544.703C546.001 544.703 546.003 544.703 546.004 544.703C546.703 318.863 729.996 136 956 136Z"/>
</mask>
<path d="M956 136C1181.55 136 1364.56 318.132 1365.99 543.349L1366 546L1368.65 546.009C1593.87 547.433 1776 730.156 1776 955.352C1776 1181.43 1592.44 1364.7 1366 1364.7C1365.57 1364.7 1365.13 1364.7 1364.7 1364.7C1364.7 1364.7 1364.7 1364.7 1364.7 1364.7C1364.7 1591.14 1181.43 1774.7 955.352 1774.7C730.156 1774.7 547.433 1592.57 546.009 1367.35L546 1364.7L543.349 1364.69C318.132 1363.27 136 1180.26 136 954.703C136 728.266 319.563 544.703 546 544.703C546.001 544.703 546.003 544.703 546.004 544.703C546.703 318.863 729.996 136 956 136Z" fill="#B4BAFF"/>
<path d="M1365.99 543.349L1501.99 542.898L1501.99 542.693L1501.99 542.487L1365.99 543.349ZM1366 546L1230 546.451L1230.45 681.551L1365.55 681.999L1366 546ZM1368.65 546.009L1369.51 410.012L1369.31 410.01L1369.1 410.01L1368.65 546.009ZM1776 955.352L1912 955.352V955.352H1776ZM1364.7 1364.7L1365.12 1228.7L1228.7 1228.28L1228.7 1364.7L1364.7 1364.7ZM1364.7 1364.7L1500.7 1364.7V1364.7H1364.7ZM955.352 1774.7L955.352 1910.7L955.352 1910.7L955.352 1774.7ZM546.009 1367.35L410.01 1367.81L410.01 1368.01L410.012 1368.21L546.009 1367.35ZM546 1364.7L681.999 1364.25L681.551 1229.15L546.451 1228.7L546 1364.7ZM543.349 1364.69L542.487 1500.69L542.693 1500.69L542.898 1500.69L543.349 1364.69ZM136 954.703L0 954.703L0 954.703L136 954.703ZM546.004 544.703L546.003 680.703L681.583 680.704L682.003 545.124L546.004 544.703ZM956 136V272C1106.73 272 1229.04 393.719 1229.99 544.21L1365.99 543.349L1501.99 542.487C1500.09 242.545 1256.37 0 956 0V136ZM1365.99 543.349L1229.99 543.799L1230 546.451L1366 546L1502 545.549L1501.99 542.898L1365.99 543.349ZM1366 546L1365.55 681.999L1368.2 682.008L1368.65 546.009L1369.1 410.01L1366.45 410.001L1366 546ZM1368.65 546.009L1367.79 682.006C1518.48 682.959 1640 805.18 1640 955.352H1776H1912C1912 655.132 1669.25 411.907 1369.51 410.012L1368.65 546.009ZM1776 955.352L1640 955.351C1640 1106.12 1517.53 1228.7 1366 1228.7V1364.7V1500.7C1667.34 1500.7 1912 1256.74 1912 955.352L1776 955.352ZM1366 1364.7V1228.7C1366.04 1228.7 1366.02 1228.7 1365.86 1228.7C1365.77 1228.7 1365.7 1228.7 1365.56 1228.7C1365.45 1228.7 1365.29 1228.7 1365.12 1228.7L1364.7 1364.7L1364.28 1500.7C1364.45 1500.7 1364.47 1500.7 1364.84 1500.7C1365.11 1500.7 1365.53 1500.7 1366 1500.7V1364.7ZM1364.7 1364.7L1228.7 1364.7C1228.7 1365.62 1228.71 1366.52 1228.73 1367.39C1228.75 1368.27 1228.77 1369.12 1228.8 1369.96C1228.84 1370.79 1228.87 1371.61 1228.92 1372.4C1228.96 1373.19 1229.02 1373.97 1229.07 1374.72C1229.13 1375.47 1229.19 1376.21 1229.25 1376.92C1229.32 1377.64 1229.38 1378.33 1229.46 1379.01C1229.53 1379.69 1229.6 1380.35 1229.68 1380.99C1229.76 1381.63 1229.84 1382.25 1229.92 1382.85C1230 1383.46 1230.08 1384.05 1230.17 1384.62C1230.25 1385.19 1230.34 1385.74 1230.42 1386.28C1230.51 1386.82 1230.6 1387.34 1230.68 1387.84C1230.77 1388.35 1230.86 1388.84 1230.95 1389.31C1231.03 1389.78 1231.12 1390.24 1231.21 1390.69C1231.29 1391.13 1231.38 1391.56 1231.46 1391.97C1231.55 1392.39 1231.63 1392.79 1231.72 1393.17C1231.8 1393.56 1231.88 1393.93 1231.96 1394.29C1232.04 1394.65 1232.12 1395 1232.2 1395.33C1232.27 1395.66 1232.35 1395.98 1232.42 1396.29C1232.49 1396.59 1232.57 1396.89 1232.63 1397.17C1232.7 1397.45 1232.77 1397.72 1232.84 1397.98C1232.9 1398.24 1232.96 1398.48 1233.02 1398.72C1233.08 1398.95 1233.14 1399.17 1233.2 1399.38C1233.25 1399.6 1233.31 1399.8 1233.36 1399.98C1233.41 1400.17 1233.46 1400.35 1233.5 1400.52C1233.55 1400.68 1233.59 1400.84 1233.63 1400.98C1233.67 1401.13 1233.71 1401.26 1233.74 1401.38C1233.78 1401.51 1233.81 1401.62 1233.84 1401.72C1233.87 1401.82 1233.89 1401.92 1233.92 1402C1233.94 1402.08 1233.96 1402.15 1233.98 1402.21C1233.99 1402.27 1234.01 1402.32 1234.02 1402.36C1234.03 1402.39 1234.03 1402.4 1234.04 1402.42C1234.04 1402.43 1234.04 1402.45 1234.05 1402.46C1234.05 1402.47 1234.05 1402.47 1234.05 1402.48C1234.05 1402.48 1234.06 1402.48 1234.06 1402.48C1234.06 1402.49 1234.06 1402.49 1234.06 1402.49C1234.06 1402.49 1234.06 1402.49 1234.06 1402.49C1234.06 1402.49 1234.06 1402.48 1234.05 1402.48C1234.05 1402.47 1234.05 1402.47 1234.05 1402.46C1234.04 1402.45 1234.04 1402.43 1234.04 1402.42C1234.03 1402.4 1234.03 1402.39 1234.02 1402.37C1234.01 1402.33 1233.99 1402.27 1233.98 1402.21C1233.96 1402.15 1233.94 1402.08 1233.92 1402C1233.89 1401.92 1233.87 1401.83 1233.84 1401.72C1233.81 1401.62 1233.78 1401.51 1233.74 1401.39C1233.71 1401.26 1233.67 1401.13 1233.63 1400.98C1233.59 1400.84 1233.55 1400.68 1233.5 1400.52C1233.46 1400.35 1233.41 1400.17 1233.36 1399.98C1233.31 1399.8 1233.25 1399.6 1233.2 1399.39C1233.14 1399.18 1233.09 1398.95 1233.02 1398.72C1232.96 1398.48 1232.9 1398.24 1232.84 1397.98C1232.77 1397.72 1232.7 1397.45 1232.63 1397.17C1232.57 1396.89 1232.49 1396.6 1232.42 1396.29C1232.35 1395.98 1232.27 1395.66 1232.2 1395.33C1232.12 1395 1232.04 1394.65 1231.96 1394.29C1231.88 1393.93 1231.8 1393.56 1231.72 1393.18C1231.63 1392.79 1231.55 1392.39 1231.46 1391.97C1231.38 1391.56 1231.29 1391.13 1231.21 1390.69C1231.12 1390.24 1231.03 1389.79 1230.95 1389.31C1230.86 1388.84 1230.77 1388.35 1230.69 1387.84C1230.6 1387.34 1230.51 1386.82 1230.42 1386.28C1230.34 1385.74 1230.25 1385.19 1230.17 1384.62C1230.08 1384.05 1230 1383.46 1229.92 1382.86C1229.84 1382.25 1229.76 1381.63 1229.68 1380.99C1229.6 1380.35 1229.53 1379.69 1229.46 1379.01C1229.39 1378.34 1229.32 1377.64 1229.25 1376.93C1229.19 1376.21 1229.13 1375.48 1229.07 1374.72C1229.02 1373.97 1228.97 1373.2 1228.92 1372.4C1228.88 1371.61 1228.84 1370.79 1228.8 1369.96C1228.77 1369.13 1228.75 1368.27 1228.73 1367.39C1228.71 1366.52 1228.7 1365.62 1228.7 1364.7H1364.7H1500.7C1500.7 1363.78 1500.69 1362.89 1500.68 1362.01C1500.66 1361.14 1500.63 1360.28 1500.6 1359.45C1500.57 1358.61 1500.53 1357.8 1500.48 1357C1500.44 1356.21 1500.39 1355.44 1500.33 1354.68C1500.28 1353.93 1500.22 1353.19 1500.15 1352.48C1500.09 1351.76 1500.02 1351.07 1499.95 1350.39C1499.88 1349.71 1499.8 1349.06 1499.72 1348.42C1499.65 1347.78 1499.57 1347.15 1499.48 1346.55C1499.4 1345.94 1499.32 1345.36 1499.24 1344.78C1499.15 1344.21 1499.07 1343.66 1498.98 1343.12C1498.89 1342.59 1498.81 1342.07 1498.72 1341.56C1498.63 1341.06 1498.54 1340.57 1498.46 1340.09C1498.37 1339.62 1498.28 1339.16 1498.2 1338.72C1498.11 1338.27 1498.02 1337.84 1497.94 1337.43C1497.85 1337.02 1497.77 1336.62 1497.69 1336.23C1497.61 1335.84 1497.52 1335.47 1497.44 1335.11C1497.36 1334.75 1497.29 1334.41 1497.21 1334.07C1497.13 1333.74 1497.06 1333.42 1496.98 1333.11C1496.91 1332.81 1496.84 1332.51 1496.77 1332.23C1496.7 1331.95 1496.63 1331.68 1496.57 1331.42C1496.5 1331.16 1496.44 1330.92 1496.38 1330.68C1496.32 1330.45 1496.26 1330.23 1496.2 1330.02C1496.15 1329.81 1496.1 1329.61 1496.05 1329.42C1495.99 1329.23 1495.95 1329.05 1495.9 1328.89C1495.86 1328.72 1495.81 1328.56 1495.77 1328.42C1495.73 1328.27 1495.7 1328.14 1495.66 1328.02C1495.63 1327.89 1495.59 1327.78 1495.57 1327.68C1495.54 1327.58 1495.51 1327.48 1495.49 1327.4C1495.46 1327.32 1495.44 1327.25 1495.43 1327.19C1495.41 1327.13 1495.39 1327.08 1495.38 1327.04C1495.38 1327.02 1495.37 1327 1495.37 1326.98C1495.36 1326.97 1495.36 1326.96 1495.36 1326.95C1495.35 1326.94 1495.35 1326.93 1495.35 1326.92C1495.35 1326.92 1495.35 1326.92 1495.35 1326.92C1495.35 1326.92 1495.35 1326.92 1495.35 1326.92C1495.35 1326.91 1495.35 1326.91 1495.35 1326.91C1495.35 1326.91 1495.35 1326.92 1495.35 1326.92C1495.35 1326.93 1495.35 1326.94 1495.36 1326.94C1495.36 1326.95 1495.36 1326.97 1495.37 1326.98C1495.37 1327 1495.38 1327.02 1495.38 1327.04C1495.39 1327.08 1495.41 1327.13 1495.43 1327.19C1495.44 1327.25 1495.46 1327.32 1495.49 1327.4C1495.51 1327.48 1495.54 1327.58 1495.57 1327.68C1495.59 1327.78 1495.63 1327.89 1495.66 1328.02C1495.7 1328.14 1495.73 1328.27 1495.77 1328.42C1495.81 1328.56 1495.86 1328.72 1495.9 1328.88C1495.95 1329.05 1495.99 1329.23 1496.04 1329.42C1496.1 1329.6 1496.15 1329.8 1496.2 1330.02C1496.26 1330.23 1496.32 1330.45 1496.38 1330.68C1496.44 1330.92 1496.5 1331.16 1496.57 1331.42C1496.63 1331.68 1496.7 1331.95 1496.77 1332.23C1496.84 1332.51 1496.91 1332.81 1496.98 1333.11C1497.06 1333.42 1497.13 1333.74 1497.21 1334.07C1497.28 1334.4 1497.36 1334.75 1497.44 1335.11C1497.52 1335.47 1497.6 1335.84 1497.69 1336.23C1497.77 1336.61 1497.85 1337.01 1497.94 1337.43C1498.02 1337.84 1498.11 1338.27 1498.2 1338.71C1498.28 1339.16 1498.37 1339.62 1498.46 1340.09C1498.54 1340.56 1498.63 1341.05 1498.72 1341.56C1498.8 1342.06 1498.89 1342.58 1498.98 1343.12C1499.06 1343.66 1499.15 1344.21 1499.23 1344.78C1499.32 1345.35 1499.4 1345.94 1499.48 1346.54C1499.57 1347.15 1499.65 1347.77 1499.72 1348.41C1499.8 1349.05 1499.87 1349.71 1499.95 1350.39C1500.02 1351.06 1500.09 1351.76 1500.15 1352.47C1500.22 1353.19 1500.28 1353.92 1500.33 1354.68C1500.39 1355.43 1500.44 1356.2 1500.48 1357C1500.53 1357.79 1500.57 1358.61 1500.6 1359.44C1500.63 1360.27 1500.66 1361.13 1500.67 1362.01C1500.69 1362.88 1500.7 1363.78 1500.7 1364.7L1364.7 1364.7ZM1364.7 1364.7L1228.7 1364.7C1228.7 1516.23 1106.12 1638.7 955.351 1638.7L955.352 1774.7L955.352 1910.7C1256.74 1910.7 1500.7 1666.05 1500.7 1364.7L1364.7 1364.7ZM955.352 1774.7V1638.7C805.18 1638.7 682.959 1517.19 682.006 1366.49L546.009 1367.35L410.012 1368.21C411.907 1667.96 655.132 1910.7 955.352 1910.7V1774.7ZM546.009 1367.35L682.008 1366.9L681.999 1364.25L546 1364.7L410.001 1365.15L410.01 1367.81L546.009 1367.35ZM546 1364.7L546.451 1228.7L543.799 1228.7L543.349 1364.69L542.898 1500.69L545.549 1500.7L546 1364.7ZM543.349 1364.69L544.21 1228.7C393.719 1227.74 272 1105.43 272 954.703L136 954.703L0 954.703C0.000262685 1255.08 242.546 1498.79 542.487 1500.69L543.349 1364.69ZM136 954.703H272C272 803.377 394.674 680.703 546 680.703V544.703V408.703C244.453 408.703 0 653.156 0 954.703H136ZM546 544.703V680.703C546.001 680.703 546.002 680.703 546.002 680.703C546.003 680.703 546.003 680.703 546.003 680.703L546.004 544.703L546.005 408.703C546.004 408.703 546.002 408.703 546.002 408.703C546.001 408.703 546 408.703 546 408.703V544.703ZM546.004 544.703L682.003 545.124C682.471 394.206 804.966 272 956 272V136V0C655.025 0 410.936 243.52 410.005 544.282L546.004 544.703Z" fill="#B4BAFF" fill-opacity="0.71" mask="url(#path-17-outside-1_203_78)"/>
</g>
</svg>
