<svg width="2154" height="5184" viewBox="0 0 2154 5184" fill="none" xmlns="http://www.w3.org/2000/svg">
<path fill-rule="evenodd" clip-rule="evenodd" d="M1555.98 1551.96C1553.81 1552.01 1552.09 1553.77 1552.07 1555.91L1551.53 1578.62L1549.92 1601.14L1547.23 1623.61L1543.48 1645.89L1538.68 1668L1532.83 1689.83L1525.94 1711.36L1518.05 1732.54L1509.14 1753.33L1499.26 1773.66L1488.43 1793.51L1476.66 1812.82L1463.97 1831.56L1450.43 1849.65L1436.03 1867.09L1420.82 1883.82L1404.84 1899.8L1388.1 1915.01L1370.67 1929.4L1352.57 1942.96L1333.84 1955.63L1314.52 1967.4L1294.68 1978.23L1274.33 1988.12L1253.57 1997.01L1232.36 2004.92L1210.83 2011.8L1189 2017.65L1166.89 2022.46L1144.61 2026.2L1122.16 2028.89L1099.59 2030.5L1076.99 2031.04L1054.4 2030.5L1031.83 2028.89L1009.38 2026.2L987.105 2022.46L964.995 2017.65L943.162 2011.8L921.625 2004.92L900.425 1997.01L879.655 1988.12L859.313 1978.24L839.466 1967.4L820.155 1955.63L801.415 1942.95L783.313 1929.4L765.888 1915.01L749.147 1899.8L733.162 1883.81L717.953 1867.08L703.558 1849.65L690.014 1831.56L677.332 1812.82L665.57 1793.52L654.733 1773.68L644.848 1753.33L635.95 1732.56L628.048 1711.37L621.165 1689.84L615.31 1668L610.506 1645.9L606.756 1623.61L604.07 1601.16L602.457 1578.6L601.919 1555.97C601.927 1553.8 600.195 1552.01 598.014 1551.96L575.299 1551.42L552.769 1549.8L530.324 1547.12L508.01 1543.37L485.919 1538.57L464.067 1532.71L442.531 1525.83L421.35 1517.93L400.562 1509.03L380.237 1499.16L360.375 1488.31L341.064 1476.54L322.352 1463.87L304.25 1450.32L286.814 1435.93L270.093 1420.73L254.085 1404.73L238.877 1388L224.482 1370.56L210.932 1352.46L198.256 1333.74L186.494 1314.44L175.661 1294.61L165.775 1274.26L156.877 1253.48L148.975 1232.29L142.085 1210.74L136.233 1188.91L131.431 1166.82L127.682 1144.53L124.994 1122.08L123.381 1099.51L122.844 1076.92L123.381 1054.32L124.994 1031.75L127.682 1009.3L131.431 987.011L136.239 964.903L142.085 943.094L148.975 921.539L156.877 900.351L165.775 879.576L175.653 859.244L186.494 839.389L198.262 820.088L210.94 801.355L224.49 783.261L238.868 765.846L254.076 749.116L270.093 733.1L286.814 717.902L304.247 703.508L322.352 689.959L341.064 677.294L360.375 665.523L380.222 654.687L400.562 644.806L421.367 635.899L442.525 628.008L464.078 621.117L485.914 615.267L508.01 610.46L530.304 606.712L552.77 604.026L575.298 602.416L598.014 601.876C600.172 601.824 601.89 600.073 601.919 597.932L602.457 575.277L604.07 552.713L606.757 530.263L610.507 507.97L615.315 485.861L621.166 464.034L628.051 442.497L635.953 421.31L644.851 400.534L654.729 380.202L665.57 360.348L677.338 341.046L690.016 322.313L703.566 304.22L717.944 286.805L733.152 270.074L749.158 254.069L765.891 238.86L783.323 224.466L801.428 210.917L820.141 198.252L839.467 186.474L859.298 175.646L879.639 165.765L900.443 156.857L921.601 148.967L943.154 142.075L965.009 136.222L987.086 131.418L1009.38 127.67L1031.85 124.984L1054.37 123.374L1076.99 122.836L1099.61 123.374L1122.14 124.984L1144.61 127.67L1166.9 131.418L1188.98 136.222L1210.84 142.077L1232.38 148.965L1253.56 156.859L1274.35 165.765L1294.68 175.643L1314.54 186.481L1333.86 198.258L1352.56 210.917L1370.66 224.466L1388.1 238.86L1404.84 254.079L1420.83 270.064L1436.03 286.793L1450.42 304.22L1463.97 322.313L1476.65 341.046L1488.42 360.348L1499.26 380.202L1509.14 400.534L1518.04 421.327L1525.94 442.497L1532.83 464.04L1538.68 485.875L1543.49 507.986L1547.24 530.267L1549.92 552.732L1551.53 575.257L1552.07 597.971C1552.07 598.012 1552.07 598.053 1552.08 598.094C1552.08 598.127 1552.08 598.159 1552.08 598.191C1552.24 600.213 1553.91 601.827 1555.98 601.876L1578.69 602.416L1601.22 604.026L1623.69 606.712L1645.98 610.46L1668.07 615.269L1689.9 621.115L1711.44 628.005L1732.66 635.907L1753.4 644.802L1773.76 654.688L1793.61 665.524L1812.93 677.301L1831.65 689.964L1849.72 703.503L1867.18 717.913L1883.92 733.121L1899.9 749.094L1915.09 765.832L1929.52 783.278L1943.06 801.369L1955.73 820.08L1967.49 839.398L1978.33 859.237L1988.21 879.562L1997.12 900.351L2005.02 921.555L2011.91 943.101L2017.76 964.911L2022.55 987.017L2026.32 1009.32L2028.99 1031.74L2030.6 1054.32L2031.14 1076.92L2030.6 1099.52L2028.99 1122.09L2026.32 1144.51L2022.55 1166.82L2017.76 1188.92L2011.91 1210.73L2005.02 1232.28L1997.12 1253.48L1988.21 1274.27L1978.33 1294.6L1967.48 1314.44L1955.74 1333.75L1943.07 1352.46L1929.51 1370.57L1915.1 1387.99L1899.91 1404.73L1883.91 1420.72L1867.17 1435.93L1849.74 1450.32L1831.64 1463.88L1812.93 1476.53L1793.61 1488.31L1773.74 1499.15L1753.41 1509.03L1732.64 1517.93L1711.44 1525.83L1689.92 1532.71L1668.06 1538.57L1645.98 1543.37L1623.67 1547.12L1601.22 1549.8L1578.69 1551.42L1555.98 1551.96Z" fill="#9AD5FF" opacity="0.5"/>
</svg>
