<svg width="2154" height="5184" viewBox="0 0 2154 5184" fill="none" xmlns="http://www.w3.org/2000/svg">
<path d="M674.571 597.876H1038.67" stroke="#666666" stroke-width="8" stroke-linecap="round" stroke-linejoin="bevel"/>
<path d="M1259.04 590.211V239.009" stroke="#666666" stroke-width="8" stroke-linecap="round" stroke-linejoin="bevel"/>
<path d="M1259.04 590.211H1335.69" stroke="#666666" stroke-width="8" stroke-linecap="round" stroke-linejoin="bevel"/>
<path d="M1354.86 894.881H1914.97" stroke="#666666" stroke-width="8" stroke-linecap="round" stroke-linejoin="bevel"/>
<path d="M1563.74 1038.59H1956.67" stroke="#666666" stroke-width="8" stroke-linecap="round" stroke-linejoin="bevel"/>
<path d="M1563.74 1038.59V1115.24" stroke="#666666" stroke-width="8" stroke-linecap="round" stroke-linejoin="bevel"/>
<path d="M799.13 1335.6H674.571" stroke="#666666" stroke-width="8" stroke-linecap="round" stroke-linejoin="bevel"/>
<path d="M1031 1335.6H914.11" stroke="#666666" stroke-width="8" stroke-linecap="round" stroke-linejoin="bevel"/>
<path d="M1031 1258.95H914.11" stroke="#666666" stroke-width="8" stroke-linecap="round" stroke-linejoin="bevel"/>
<path d="M818.294 1471.64H894.946" stroke="#666666" stroke-width="8" stroke-linecap="round" stroke-linejoin="bevel"/>
<path d="M1115.32 1134.4V1471.65" stroke="#666666" stroke-width="8" stroke-linecap="round" stroke-linejoin="bevel"/>
<path d="M674.571 1479.31H1556.07" stroke="#666666" stroke-width="8" stroke-linecap="round" stroke-linejoin="bevel"/>
<path d="M1239.88 1258.95H1122.99" stroke="#666666" stroke-width="8" stroke-linecap="round" stroke-linejoin="bevel"/>
<path d="M674.571 1335.6V1479.31" stroke="#666666" stroke-width="8" stroke-linecap="round" stroke-linejoin="bevel"/>
<path d="M1335.69 1335.6V1278.11" stroke="#666666" stroke-width="8" stroke-linecap="round" stroke-linejoin="bevel"/>
<path d="M1479.42 1115.24H1354.86" stroke="#666666" stroke-width="8" stroke-linecap="round" stroke-linejoin="bevel"/>
<path d="M1031 1258.95V1335.6" stroke="#666666" stroke-width="8" stroke-linecap="round" stroke-linejoin="bevel"/>
<path d="M1479.42 1115.24V1471.65" stroke="#666666" stroke-width="8" stroke-linecap="round" stroke-linejoin="bevel"/>
<path d="M1479.42 1471.64H1556.07" stroke="#666666" stroke-width="8" stroke-linecap="round" stroke-linejoin="bevel"/>
<path d="M1335.69 590.21V289.645" stroke="#666666" stroke-width="8" stroke-linecap="round" stroke-linejoin="bevel"/>
<path d="M1556.07 902.543V1471.65" stroke="#666666" stroke-width="8" stroke-linecap="round" stroke-linejoin="bevel"/>
<path d="M1479.42 902.543H1556.07" stroke="#666666" stroke-width="8" stroke-linecap="round" stroke-linejoin="bevel"/>
<path d="M1354.86 1038.59H1479.42" stroke="#666666" stroke-width="8" stroke-linecap="round" stroke-linejoin="bevel"/>
<path d="M1259.04 799.072V682.187" stroke="#666666" stroke-width="8" stroke-linecap="round" stroke-linejoin="bevel"/>
<path d="M1122.99 818.232V894.882" stroke="#666666" stroke-width="8" stroke-linecap="round" stroke-linejoin="bevel"/>
<path d="M597.919 674.521H1479.42" stroke="#666666" stroke-width="8" stroke-linecap="round" stroke-linejoin="bevel"/>
<path d="M1956.67 1115.24H1563.74" stroke="#666666" stroke-width="8" stroke-linecap="round" stroke-linejoin="bevel"/>
<path d="M1479.42 674.521V818.232" stroke="#666666" stroke-width="8" stroke-linecap="round" stroke-linejoin="bevel"/>
<path d="M1122.99 818.232H1239.88" stroke="#666666" stroke-width="8" stroke-linecap="round" stroke-linejoin="bevel"/>
<path d="M1335.69 799.072V682.187" stroke="#666666" stroke-width="8" stroke-linecap="round" stroke-linejoin="bevel"/>
<path d="M597.919 1335.6V1479.31" stroke="#666666" stroke-width="8" stroke-linecap="round" stroke-linejoin="bevel"/>
<path d="M1038.67 1471.65V1134.4" stroke="#666666" stroke-width="8" stroke-linecap="round" stroke-linejoin="bevel"/>
<path d="M1115.32 1555.96V1956.52" stroke="#666666" stroke-width="8" stroke-linecap="round" stroke-linejoin="bevel"/>
<path d="M1115.32 1555.96H1479.42" stroke="#666666" stroke-width="8" stroke-linecap="round" stroke-linejoin="bevel"/>
<path d="M1556.07 674.521V818.232" stroke="#666666" stroke-width="8" stroke-linecap="round" stroke-linejoin="bevel"/>
<path d="M818.294 1563.62H894.946" stroke="#666666" stroke-width="8" stroke-linecap="round" stroke-linejoin="bevel"/>
<path d="M597.919 1335.6H289.669" stroke="#666666" stroke-width="8" stroke-linecap="round" stroke-linejoin="bevel"/>
<path d="M1038.67 597.876V197.309" stroke="#666666" stroke-width="8" stroke-linecap="round" stroke-linejoin="bevel"/>
<path d="M818.294 981.106V1019.43" stroke="#666666" stroke-width="8" stroke-linecap="round" stroke-linejoin="bevel"/>
<path d="M1038.67 1471.64H1115.32" stroke="#666666" stroke-width="8" stroke-linecap="round" stroke-linejoin="bevel"/>
<path d="M674.571 1555.96H1038.67" stroke="#666666" stroke-width="8" stroke-linecap="round" stroke-linejoin="bevel"/>
<path d="M1122.99 1258.95V1335.6" stroke="#666666" stroke-width="8" stroke-linecap="round" stroke-linejoin="bevel"/>
<path d="M1556.07 818.232H1864.31" stroke="#666666" stroke-width="8" stroke-linecap="round" stroke-linejoin="bevel"/>
<path d="M914.11 818.232H1031" stroke="#666666" stroke-width="8" stroke-linecap="round" stroke-linejoin="bevel"/>
<path d="M1479.42 902.543V1038.59" stroke="#666666" stroke-width="8" stroke-linecap="round" stroke-linejoin="bevel"/>
<path d="M1259.04 682.187H1335.69" stroke="#666666" stroke-width="8" stroke-linecap="round" stroke-linejoin="bevel"/>
<path d="M1115.32 597.876H1479.42" stroke="#666666" stroke-width="8" stroke-linecap="round" stroke-linejoin="bevel"/>
<path d="M1335.69 1335.6H1122.99" stroke="#666666" stroke-width="8" stroke-linecap="round" stroke-linejoin="bevel"/>
<path d="M674.571 1038.59H799.13" stroke="#666666" stroke-width="8" stroke-linecap="round" stroke-linejoin="bevel"/>
<path d="M894.947 1563.62V1914.82" stroke="#666666" stroke-width="8" stroke-linecap="round" stroke-linejoin="bevel"/>
<path d="M197.325 1038.59H590.253" stroke="#666666" stroke-width="8" stroke-linecap="round" stroke-linejoin="bevel"/>
<path d="M674.571 1115.24V1251.29" stroke="#666666" stroke-width="8" stroke-linecap="round" stroke-linejoin="bevel"/>
<path d="M1115.32 197.309V597.876" stroke="#666666" stroke-width="8" stroke-linecap="round" stroke-linejoin="bevel"/>
<path d="M590.253 1038.59V1115.24" stroke="#666666" stroke-width="8" stroke-linecap="round" stroke-linejoin="bevel"/>
<path d="M818.294 1383.5V1471.64" stroke="#666666" stroke-width="8" stroke-linecap="round" stroke-linejoin="bevel"/>
<path d="M590.253 1115.24H197.325" stroke="#666666" stroke-width="8" stroke-linecap="round" stroke-linejoin="bevel"/>
<path d="M1038.67 1956.52V1555.96" stroke="#666666" stroke-width="8" stroke-linecap="round" stroke-linejoin="bevel"/>
<path d="M1122.99 894.881H1239.88" stroke="#666666" stroke-width="8" stroke-linecap="round" stroke-linejoin="bevel"/>
<path d="M1354.86 818.232H1479.42" stroke="#666666" stroke-width="8" stroke-linecap="round" stroke-linejoin="bevel"/>
<path d="M799.131 1258.95H239.028" stroke="#666666" stroke-width="8" stroke-linecap="round" stroke-linejoin="bevel"/>
<path d="M799.13 1115.24H674.571" stroke="#666666" stroke-width="8" stroke-linecap="round" stroke-linejoin="bevel"/>
<path d="M597.919 682.187V1251.29" stroke="#666666" stroke-width="8" stroke-linecap="round" stroke-linejoin="bevel"/>
<path d="M1038.67 1019.43V682.187" stroke="#666666" stroke-width="8" stroke-linecap="round" stroke-linejoin="bevel"/>
<path d="M597.919 682.187H674.571" stroke="#666666" stroke-width="8" stroke-linecap="round" stroke-linejoin="bevel"/>
<path d="M674.571 682.187V1038.59" stroke="#666666" stroke-width="8" stroke-linecap="round" stroke-linejoin="bevel"/>
<path d="M597.919 1251.29H674.571" stroke="#666666" stroke-width="8" stroke-linecap="round" stroke-linejoin="bevel"/>
<path d="M1031 818.232V894.882" stroke="#666666" stroke-width="8" stroke-linecap="round" stroke-linejoin="bevel"/>
<path d="M818.294 1563.62V1864.18" stroke="#666666" stroke-width="8" stroke-linecap="round" stroke-linejoin="bevel"/>
<path d="M914.11 894.881H1031" stroke="#666666" stroke-width="8" stroke-linecap="round" stroke-linejoin="bevel"/>
<path d="M894.947 981.106V1019.43" stroke="#666666" stroke-width="8" stroke-linecap="round" stroke-linejoin="bevel"/>
<path d="M1115.32 682.187V1019.43" stroke="#666666" stroke-width="8" stroke-linecap="round" stroke-linejoin="bevel"/>
<path d="M894.947 1460.15V1471.65" stroke="#666666" stroke-width="8" stroke-linecap="round" stroke-linejoin="bevel"/>
<path d="M1038.67 682.187H1115.32" stroke="#666666" stroke-width="8" stroke-linecap="round" stroke-linejoin="bevel"/>
<path d="M1259.04 239.008L1242.07 230.892L1224.74 223.581L1207.08 217.084L1189.14 211.422L1170.95 206.603L1152.56 202.637L1134 199.538L1115.32 197.309" stroke="#666666" stroke-width="8" stroke-linecap="round" stroke-linejoin="bevel"/>
<path d="M1956.67 1038.59L1954.43 1019.91L1951.35 1001.36L1947.36 982.966L1942.56 964.781L1936.88 946.838L1930.39 929.185L1923.08 911.853L1914.97 894.881" stroke="#666666" stroke-width="8" stroke-linecap="round" stroke-linejoin="bevel"/>
<path d="M1038.67 197.309L1018.35 199.778L998.175 203.273L978.209 207.794L958.497 213.32L939.093 219.843L920.046 227.345L901.404 235.805L883.218 245.203L865.534 255.513L848.395 266.709L831.847 278.761L815.935 291.641L800.698 305.312L786.178 319.74L772.408 334.888L759.427 350.718L747.266 367.187L735.963 384.25L725.539 401.871L716.023 419.995L707.446 438.58L699.823 457.58L693.176 476.94L687.523 496.612L682.875 516.55L679.25 536.696L676.651 557L675.093 577.412L674.571 597.876" stroke="#666666" stroke-width="8" stroke-linecap="round" stroke-linejoin="bevel"/>
<path d="M1479.42 597.875L1478.89 577.23L1477.3 556.64L1474.66 536.157L1470.97 515.839L1466.24 495.735L1460.49 475.901L1453.72 456.388L1445.97 437.245L1437.24 418.528L1427.56 400.284L1416.96 382.559L1405.47 365.402L1393.1 348.858L1379.91 332.97L1365.92 317.776L1351.17 303.323L1335.69 289.645" stroke="#666666" stroke-width="8" stroke-linecap="round" stroke-linejoin="bevel"/>
<path d="M1556.07 1479.31L1576.54 1478.79L1596.95 1477.23L1617.24 1474.63L1637.4 1471.01L1657.35 1466.36L1677.02 1460.71L1696.36 1454.06L1715.38 1446.44L1733.98 1437.86L1752.09 1428.35L1769.71 1417.92L1786.78 1406.62L1803.23 1394.46L1819.07 1381.48L1834.23 1367.71L1848.67 1353.19L1862.33 1337.96L1875.21 1322.05L1887.26 1305.5L1898.45 1288.36L1908.77 1270.68L1918.15 1252.49L1926.62 1233.85L1934.12 1214.81L1940.64 1195.4L1946.19 1175.69L1950.7 1155.73L1954.21 1135.56L1956.67 1115.24" stroke="#666666" stroke-width="8" stroke-linecap="round" stroke-linejoin="bevel"/>
<path d="M197.325 1115.24L199.555 1133.92L202.654 1152.47L206.617 1170.87L211.436 1189.05L217.099 1206.99L223.596 1224.65L230.911 1241.98L239.028 1258.95" stroke="#666666" stroke-width="8" stroke-linecap="round" stroke-linejoin="bevel"/>
<path d="M674.571 1555.96L675.099 1576.6L676.69 1597.19L679.331 1617.67L683.021 1637.99L687.75 1658.1L693.504 1677.93L700.267 1697.44L708.024 1716.58L716.75 1735.3L726.428 1753.55L737.027 1771.27L748.522 1788.43L760.884 1804.97L774.076 1820.86L788.067 1836.05L802.82 1850.51L818.294 1864.18" stroke="#666666" stroke-width="8" stroke-linecap="round" stroke-linejoin="bevel"/>
<path d="M1864.31 818.232L1850.65 802.759L1836.17 788.01L1820.98 774.02L1805.12 760.825L1788.56 748.468L1771.4 736.974L1753.68 726.372L1735.44 716.698L1716.71 707.972L1697.56 700.216L1678.06 693.454L1658.23 687.7L1638.11 682.972L1617.79 679.282L1597.31 676.641L1576.72 675.051L1556.07 674.521" stroke="#666666" stroke-width="8" stroke-linecap="round" stroke-linejoin="bevel"/>
<path d="M1115.32 1956.52L1135.64 1954.05L1155.81 1950.56L1175.78 1946.04L1195.49 1940.51L1214.9 1933.99L1233.94 1926.48L1252.58 1918.02L1270.77 1908.63L1288.46 1898.32L1305.59 1887.12L1322.14 1875.07L1338.05 1862.19L1353.29 1848.52L1367.81 1834.09L1381.58 1818.94L1394.56 1803.11L1406.72 1786.65L1418.03 1769.58L1428.45 1751.96L1437.97 1733.83L1446.54 1715.25L1454.17 1696.25L1460.81 1676.89L1466.47 1657.22L1471.11 1637.28L1474.74 1617.13L1477.34 1596.83L1478.9 1576.42L1479.42 1555.96" stroke="#666666" stroke-width="8" stroke-linecap="round" stroke-linejoin="bevel"/>
<path d="M289.669 1335.6L303.348 1351.07L317.803 1365.82L332.994 1379.81L348.883 1393L365.431 1405.36L382.59 1416.86L400.316 1427.46L418.561 1437.13L437.28 1445.86L456.421 1453.62L475.936 1460.38L495.771 1466.13L515.876 1470.86L536.195 1474.55L556.68 1477.19L577.272 1478.78L597.919 1479.31" stroke="#666666" stroke-width="8" stroke-linecap="round" stroke-linejoin="bevel"/>
<path d="M894.947 1914.82L911.92 1922.94L929.253 1930.25L946.911 1936.75L964.852 1942.41L983.039 1947.23L1001.43 1951.19L1019.99 1954.29L1038.67 1956.52" stroke="#666666" stroke-width="8" stroke-linecap="round" stroke-linejoin="bevel"/>
<path d="M597.919 674.521L577.453 675.041L557.04 676.602L536.734 679.198L516.587 682.826L496.651 687.47L476.974 693.122L457.612 699.772L438.614 707.395L420.024 715.971L401.899 725.486L384.28 735.906L367.213 747.212L350.743 759.372L334.915 772.349L319.766 786.118L305.334 800.64L291.661 815.876L278.783 831.786L266.73 848.33L255.531 865.467L245.22 883.153L235.825 901.339L227.361 919.979L219.861 939.024L213.338 958.427L207.808 978.138L203.29 998.102L199.791 1018.27L197.325 1038.59" stroke="#666666" stroke-width="8" stroke-linecap="round" stroke-linejoin="bevel"/>
<path d="M1239.88 799.072V1019.43" stroke="#666666" stroke-width="8" stroke-linecap="round" stroke-linejoin="bevel"/>
<path d="M914.11 1134.4V1479.31" stroke="#666666" stroke-width="8" stroke-linecap="round" stroke-linejoin="bevel"/>
<path d="M1239.88 1278.11H1354.86" stroke="#666666" stroke-width="8" stroke-linecap="round" stroke-linejoin="bevel"/>
<path d="M914.11 1134.4H1239.88" stroke="#666666" stroke-width="8" stroke-linecap="round" stroke-linejoin="bevel"/>
<path d="M1354.86 799.072V1278.11" stroke="#666666" stroke-width="8" stroke-linecap="round" stroke-linejoin="bevel"/>
<path d="M1239.88 799.072H1354.86" stroke="#666666" stroke-width="8" stroke-linecap="round" stroke-linejoin="bevel"/>
<path d="M799.13 1019.43H1239.88" stroke="#666666" stroke-width="8" stroke-linecap="round" stroke-linejoin="bevel"/>
<path d="M1239.88 1134.4V1278.11" stroke="#666666" stroke-width="8" stroke-linecap="round" stroke-linejoin="bevel"/>
<path d="M799.13 1019.43V1364.34" stroke="#666666" stroke-width="8" stroke-linecap="round" stroke-linejoin="bevel"/>
<path d="M799.13 1364.34L914.11 1479.31" stroke="#666666" stroke-width="8" stroke-linecap="round" stroke-linejoin="bevel"/>
<path d="M857.008 4847.9L881.663 5077.98" stroke="#666666" stroke-width="8" stroke-linecap="round" stroke-linejoin="bevel"/>
<path d="M1272.33 5077.98L1296.98 4847.9" stroke="#666666" stroke-width="8" stroke-linecap="round" stroke-linejoin="bevel"/>
<path d="M827.875 2334.07L856.577 4840.6" stroke="#666666" stroke-width="8" stroke-linecap="round" stroke-linejoin="bevel"/>
<path d="M1297.41 4840.6L1326.11 2334.07" stroke="#666666" stroke-width="8" stroke-linecap="round" stroke-linejoin="bevel"/>
<path d="M560.919 560.875L492.39 492.354" stroke="#666666" stroke-width="8" stroke-linecap="round" stroke-linejoin="bevel"/>
<path d="M1661.61 492.354L1593.07 560.875" stroke="#666666" stroke-width="8" stroke-linecap="round" stroke-linejoin="bevel"/>
<path d="M1661.61 1661.48L1593.07 1592.96" stroke="#666666" stroke-width="8" stroke-linecap="round" stroke-linejoin="bevel"/>
<path d="M560.919 1592.96L492.39 1661.48" stroke="#666666" stroke-width="8" stroke-linecap="round" stroke-linejoin="bevel"/>
<path d="M652.656 2178.7L779.974 2252.2" stroke="#666666" stroke-width="8" stroke-linecap="round" stroke-linejoin="bevel"/>
<path d="M1374.02 2252.2L1501.34 2178.7" stroke="#666666" stroke-width="8" stroke-linecap="round" stroke-linejoin="bevel"/>
<path d="M1501.33 2178.7L1481.06 2063.74" stroke="#666666" stroke-width="8" stroke-linecap="round" stroke-linejoin="bevel"/>
<path d="M672.929 2063.74L652.656 2178.7" stroke="#666666" stroke-width="8" stroke-linecap="round" stroke-linejoin="bevel"/>
<path d="M1220.72 2623.64L1220.64 2619.74L1220.46 2617.44L1220.11 2614.68L1219.57 2611.5L1218.84 2608.03L1216.87 2600.73L1214.24 2593.75L1210.98 2587.45L1207.07 2581.61L1202.5 2576L1197.21 2570.68L1191.11 2565.74L1184.16 2561.39L1176.68 2557.79L1169.15 2555.07L1165.51 2554.13L1162.01 2553.41L1155.32 2552.6L1148.86 2552.21" stroke="#666666" stroke-width="8" stroke-linecap="round" stroke-linejoin="bevel"/>
<path d="M1148.86 2552.44L1148.13 2545.3L1147.14 2538.26L1145.61 2531.31L1143.32 2524.6L1140.22 2518.17L1136.43 2512.04L1132.04 2506.33L1127.12 2501.04L1121.69 2496.27L1115.79 2492.05L1109.45 2488.44L1102.75 2485.46L1095.8 2483.22L1088.67 2481.66L1081.46 2480.85L1074.24 2480.75L1067.09 2481.4L1060.07 2482.7L1053.23 2484.71L1046.63 2487.44L1040.32 2490.78L1034.35 2494.74L1028.79 2499.22L1023.7 2504.22L1019.11 2509.73L1015.09 2515.87L1011.68 2522.71L1008.94 2529.98L1006.93 2537.02L1006.22 2540.27L1005.71 2543.19L1005.4 2545.79L1005.23 2548.16L1005.13 2552.44" stroke="#666666" stroke-width="8" stroke-linecap="round" stroke-linejoin="bevel"/>
<path d="M1005.13 2552.44L997.76 2553.22L990.474 2554.26L983.366 2555.85L976.522 2558.18L970.002 2561.4L963.833 2565.29L958.046 2569.8L952.685 2574.86L947.836 2580.51L943.579 2586.84L939.999 2593.91L937.153 2601.31L935.092 2608.38L934.371 2611.63L933.862 2614.55L933.544 2617.18L933.375 2619.55L933.271 2623.93" stroke="#666666" stroke-width="8" stroke-linecap="round" stroke-linejoin="bevel"/>
<path d="M933.271 2623.93L933.482 2629.09L934.092 2634.77L934.664 2637.91L935.439 2641.26L937.578 2648.3L940.437 2655.28L943.965 2661.77L948.125 2667.77L952.883 2673.42L958.273 2678.67L964.456 2683.48L967.902 2685.65L971.609 2687.66L979.595 2691.13L987.598 2693.73L991.321 2694.67L994.709 2695.35L997.695 2695.77L1000.35 2696.03L1005.13 2696.16" stroke="#666666" stroke-width="8" stroke-linecap="round" stroke-linejoin="bevel"/>
<path d="M1005.13 2696.16L1005.82 2703.21L1006.79 2710.18L1008.29 2717.06L1010.57 2723.78L1013.64 2730.24L1017.41 2736.4L1021.78 2742.15L1026.67 2747.47L1032.08 2752.3L1037.97 2756.56L1044.3 2760.22L1050.99 2763.24L1057.95 2765.54L1065.08 2767.1L1072.3 2767.95L1079.53 2768.08L1086.69 2767.46L1093.72 2766.16L1100.57 2764.15L1107.18 2761.46L1113.51 2758.08L1119.48 2754.12L1125.05 2749.64L1130.16 2744.65L1134.76 2739.1L1138.8 2732.93L1142.23 2726.08L1144.99 2718.81L1147.02 2711.84L1147.74 2708.63L1148.24 2705.67L1148.74 2700.61L1148.86 2696.16" stroke="#666666" stroke-width="8" stroke-linecap="round" stroke-linejoin="bevel"/>
<path d="M1148.86 2552.21L1147.17 2538.1L1145.66 2531.22L1143.38 2524.53L1140.3 2518.07L1136.53 2511.97L1132.16 2506.23L1127.26 2500.94L1121.85 2496.17L1115.95 2491.92L1109.6 2488.28L1102.9 2485.3L1095.94 2483.03L1088.81 2481.47L1081.59 2480.66L1074.38 2480.53L1067.23 2481.14L1060.22 2482.44L1053.39 2484.45L1046.8 2487.12L1040.49 2490.46L1034.53 2494.38L1028.96 2498.86L1023.85 2503.83L1019.25 2509.31L1015.2 2515.48L1011.76 2522.32L1009 2529.56L1006.97 2536.57L1006.25 2539.78L1005.75 2542.7L1005.25 2547.77L1005.13 2552.21" stroke="#666666" stroke-width="8" stroke-linecap="round" stroke-linejoin="bevel"/>
<path d="M1148.86 2696.16L1156.3 2695.29L1163.65 2694.18L1170.81 2692.53L1177.69 2690.1L1184.23 2686.85L1190.43 2682.83L1196.25 2678.06L1201.65 2672.7L1206.51 2666.8L1210.71 2660.53L1214.14 2654.04L1216.78 2647.49L1218.66 2641.09L1219.81 2635.06L1220.4 2629.38L1220.72 2623.9" stroke="#666666" stroke-width="8" stroke-linecap="round" stroke-linejoin="bevel"/>
<path d="M1220.72 2623.9L1220.64 2619.9L1220.45 2617.57L1220.1 2614.78L1219.54 2611.56L1218.79 2608.09L1216.76 2600.69L1214.03 2593.59L1210.66 2587.16L1206.63 2581.26L1201.96 2575.64L1196.6 2570.35L1190.45 2565.48L1183.43 2561.23L1175.85 2557.73L1168.28 2555.1L1164.67 2554.16L1161.25 2553.48L1154.88 2552.73L1148.86 2552.44" stroke="#666666" stroke-width="8" stroke-linecap="round" stroke-linejoin="bevel"/>
<path d="M918.291 5135.45L932.798 5143.66L947.73 5151.09L963.044 5157.68L978.69 5163.46L994.628 5168.36L1010.81 5172.38L1027.19 5175.53L1043.71 5177.77L1060.33 5179.13L1077 5179.59" stroke="#666666" stroke-width="8" stroke-linecap="round" stroke-linejoin="bevel"/>
<path d="M1076.99 5179.59L1093.66 5179.13L1110.28 5177.77L1126.8 5175.53L1143.18 5172.38L1159.36 5168.36L1175.3 5163.46L1190.95 5157.68L1206.26 5151.09L1221.19 5143.66L1235.7 5135.45" stroke="#666666" stroke-width="8" stroke-linecap="round" stroke-linejoin="bevel"/>
<path d="M881.664 5077.98L883.104 5086.68L885.538 5095.15L888.933 5103.29L893.236 5110.98L898.4 5118.16L904.352 5124.68L911.011 5130.46L918.29 5135.45" stroke="#666666" stroke-width="8" stroke-linecap="round" stroke-linejoin="bevel"/>
<path d="M1235.7 5135.45L1242.98 5130.46L1249.64 5124.68L1255.59 5118.16L1260.75 5110.98L1265.06 5103.29L1268.45 5095.15L1270.89 5086.68L1272.33 5077.98" stroke="#666666" stroke-width="8" stroke-linecap="round" stroke-linejoin="bevel"/>
<path d="M779.974 2252.2L788.298 2257.62L796.016 2263.85L803.052 2270.83L809.325 2278.52L814.771 2286.79L819.33 2295.62L822.952 2304.83L825.603 2314.41L827.249 2324.18L827.875 2334.07" stroke="#666666" stroke-width="8" stroke-linecap="round" stroke-linejoin="bevel"/>
<path d="M1326.11 2334.07L1326.74 2324.18L1328.39 2314.41L1331.04 2304.83L1334.66 2295.62L1339.22 2286.79L1344.67 2278.52L1350.94 2270.83L1357.97 2263.85L1365.7 2257.62L1374.02 2252.2" stroke="#666666" stroke-width="8" stroke-linecap="round" stroke-linejoin="bevel"/>
<path d="M1556.07 597.875L1555.53 575.081L1553.9 552.339L1551.2 529.698L1547.41 507.216L1542.57 484.935L1536.67 462.914L1529.72 441.194L1521.75 419.831L1512.78 398.874L1502.81 378.365L1491.89 358.353L1480.02 338.885L1467.24 320.002L1453.57 301.751L1439.06 284.169L1423.72 267.298L1407.6 251.176L1390.72 235.84L1373.14 221.321L1354.89 207.659L1336 194.88L1316.53 183.013L1296.52 172.086L1276.01 162.124L1255.05 153.148L1233.69 145.181L1211.97 138.237L1189.94 132.337L1167.66 127.489L1145.17 123.708L1122.53 121.002L1099.79 119.376L1076.99 118.834L1054.2 119.376L1031.46 121.002L1008.82 123.708L986.329 127.489L964.05 132.337L942.024 138.237L920.306 145.181L898.942 153.148L877.98 162.124L857.469 172.086L837.458 183.013L817.986 194.88L799.105 207.659L780.85 221.321L763.266 235.84L746.394 251.176L730.271 267.298L714.933 284.169L700.417 301.751L686.751 320.002L673.971 338.885L662.102 358.353L651.175 378.365L641.212 398.874L632.235 419.831L624.268 441.194L617.326 462.914L611.423 484.935L606.578 507.216L602.797 529.698L600.087 552.339L598.461 575.081L597.919 597.875" stroke="#666666" stroke-width="8" stroke-linecap="round" stroke-linejoin="bevel"/>
<path d="M1481.06 2063.74H672.929" stroke="#666666" stroke-width="8" stroke-linecap="round" stroke-linejoin="bevel"/>
<path d="M1501.33 2178.7H652.655" stroke="#666666" stroke-width="8" stroke-linecap="round" stroke-linejoin="bevel"/>
<path d="M1374.02 2252.2H779.973" stroke="#A1A1A1" stroke-width="8" stroke-linecap="round" stroke-linejoin="bevel"/>
<path d="M857.008 4847.9H1296.98" stroke="#A1A1A1" stroke-width="8" stroke-linecap="round" stroke-linejoin="bevel"/>
<path d="M560.918 560.875L537.519 563.088L514.244 566.362L491.14 570.688L468.257 576.059L445.643 582.465L423.345 589.89L401.403 598.32L379.87 607.738L358.785 618.125L338.193 629.457L318.14 641.714L298.661 654.87L279.803 668.895L261.599 683.761L244.088 699.438L227.309 715.897L211.293 733.1L196.079 751.013L181.689 769.598L168.162 788.815L155.519 808.63L143.79 828.996L132.999 849.875L123.169 871.222L114.316 892.993L106.462 915.144L99.6206 937.63L93.8081 960.401L89.0376 983.415L85.315 1006.62L82.6506 1029.97L81.0507 1053.42L80.5151 1076.92L81.0507 1100.41L82.6506 1123.86L85.315 1147.21L89.0376 1170.42L93.8081 1193.43L99.6206 1216.2L106.462 1238.69L114.316 1260.84L123.169 1282.61L132.999 1303.96L143.79 1324.84L155.519 1345.2L168.162 1365.01L181.689 1384.24L196.079 1402.82L211.293 1420.73L227.309 1437.94L244.088 1454.39L261.599 1470.07L279.803 1484.94L298.661 1498.96L318.14 1512.12L338.193 1524.37L358.785 1535.71L379.87 1546.09L401.403 1555.51L423.345 1563.94L445.643 1571.36L468.257 1577.77L491.14 1583.14L514.244 1587.47L537.519 1590.74L560.918 1592.95" stroke="#A1A1A1" stroke-width="8" stroke-linecap="round" stroke-linejoin="bevel"/>
<path d="M560.919 1592.96L563.109 1616.16L566.342 1639.24L570.609 1662.15L575.906 1684.85L582.218 1707.28L589.536 1729.41L597.844 1751.18L607.123 1772.56L617.355 1793.5L628.519 1813.96L640.595 1833.89L653.557 1853.26L667.376 1872.03L682.026 1890.16L697.48 1907.6L713.703 1924.34L730.664 1940.32L748.325 1955.53L766.655 1969.92L785.614 1983.48L805.164 1996.17L825.269 2007.96L845.88 2018.84L866.962 2028.78L888.472 2037.76L910.362 2045.76L932.593 2052.76L955.112 2058.76L977.882 2063.74" stroke="#A1A1A1" stroke-width="8" stroke-linecap="round" stroke-linejoin="bevel"/>
<path d="M768.745 2063.74L747.53 2050.24L726.906 2035.85L706.908 2020.61L687.575 2004.53L668.937 1987.65L651.033 1970L633.891 1951.6L617.544 1932.5L602.018 1912.72L587.346 1892.3L573.55 1871.28L560.653 1849.69L548.684 1827.58L537.663 1804.98L527.605 1781.93L518.535 1758.48L510.463 1734.67L503.408 1710.53L497.378 1686.12L492.39 1661.48" stroke="#666666" stroke-width="8" stroke-linecap="round" stroke-linejoin="bevel"/>
<path d="M1661.61 1661.48L1656.61 1686.12L1650.57 1710.53L1643.53 1734.67L1635.45 1758.48L1626.39 1781.93L1616.33 1804.98L1605.31 1827.58L1593.34 1849.69L1580.44 1871.28L1566.65 1892.3L1551.97 1912.72L1536.45 1932.5L1520.1 1951.6L1502.96 1970L1485.05 1987.65L1466.42 2004.53L1447.08 2020.61L1427.08 2035.85L1406.46 2050.24L1385.25 2063.74" stroke="#666666" stroke-width="8" stroke-linecap="round" stroke-linejoin="bevel"/>
<path d="M1661.61 492.354L1686.53 497.407L1711.23 503.527L1735.67 510.696L1759.75 518.906L1783.44 528.138L1806.74 538.38L1829.59 549.608L1851.91 561.803L1873.69 574.943L1894.92 589.004L1915.49 603.961L1935.42 619.787L1954.63 636.451L1973.13 653.919L1990.88 672.166L2007.82 691.157L2023.92 710.855L2039.17 731.224L2053.52 752.23L2066.98 773.829L2079.48 795.984L2091.03 818.654L2101.61 841.798L2111.19 865.374L2119.72 889.339L2127.25 913.648L2133.71 938.256L2139.13 963.117L2143.48 988.189L2146.72 1013.42L2148.9 1038.77L2150 1064.19V1089.64L2148.9 1115.06L2146.72 1140.41L2143.48 1165.64L2139.13 1190.71L2133.71 1215.58L2127.25 1240.18L2119.72 1264.49L2111.19 1288.46L2101.61 1312.03L2091.03 1335.18L2079.48 1357.85L2066.98 1380L2053.52 1401.6L2039.17 1422.61L2023.92 1442.98L2007.82 1462.67L1990.88 1481.66L1973.13 1499.91L1954.63 1517.38L1935.42 1534.05L1915.49 1549.87L1894.92 1564.83L1873.69 1578.89L1851.91 1592.03L1829.59 1604.23L1806.74 1615.45L1783.44 1625.69L1759.75 1634.92L1735.67 1643.13L1711.23 1650.31L1686.53 1656.42L1661.61 1661.48" stroke="#666666" stroke-width="8" stroke-linecap="round" stroke-linejoin="bevel"/>
<path d="M1326.11 2334.07H827.875" stroke="#A1A1A1" stroke-width="8" stroke-linecap="round" stroke-linejoin="bevel"/>
<path d="M492.39 1661.48L467.453 1656.42L442.752 1650.31L418.337 1643.13L394.254 1634.92L370.543 1625.69L347.248 1615.45L324.414 1604.23L302.082 1592.03L280.293 1578.89L259.085 1564.83L238.499 1549.87L218.576 1534.05L199.344 1517.38L180.846 1499.91L163.113 1481.66L146.179 1462.67L130.072 1442.98L114.826 1422.61L100.462 1401.6L87.0128 1380L74.5021 1357.85L62.9518 1335.18L52.3816 1312.03L42.8111 1288.46L34.2596 1264.49L26.7434 1240.18L20.2754 1215.58L14.8687 1190.71L10.5296 1165.64L7.26803 1140.41L5.09043 1115.06L4 1089.64V1064.19L5.09043 1038.77L7.26803 1013.42L10.5296 988.189L14.8687 963.117L20.2754 938.256L26.7434 913.648L34.2596 889.339L42.8111 865.374L52.3816 841.798L62.9518 818.654L74.5021 795.984L87.0128 773.829L100.462 752.23L114.826 731.224L130.072 710.855L146.179 691.157L163.113 672.166L180.846 653.919L199.344 636.451L218.576 619.787L238.499 603.961L259.085 589.004L280.293 574.943L302.082 561.803L324.414 549.608L347.248 538.38L370.543 528.138L394.254 518.906L418.337 510.696L442.752 503.527L467.453 497.407L492.39 492.354" stroke="#666666" stroke-width="8" stroke-linecap="round" stroke-linejoin="bevel"/>
<path d="M1593.07 560.875L1590.86 537.478L1587.59 514.204L1583.26 491.105L1577.89 468.224L1571.48 445.612L1564.06 423.312L1555.63 401.375L1546.21 379.843L1535.82 358.76L1524.49 338.17L1512.23 318.115L1499.07 298.641L1485.05 279.78L1470.18 261.578L1454.5 244.071L1438.04 227.294L1420.84 211.279L1402.92 196.063L1384.34 181.677L1365.12 168.148L1345.3 155.509L1324.93 143.781L1304.05 132.991L1282.7 123.158L1260.93 114.309L1238.78 106.452L1216.29 99.6147L1193.52 93.8028L1170.5 89.0292L1147.3 85.3103L1123.94 82.646L1100.49 81.0462L1076.99 80.5107L1053.5 81.0462L1030.05 82.646L1006.69 85.3103L983.486 89.0292L960.474 93.8028L937.698 99.6147L915.211 106.452L893.058 114.309L871.285 123.158L849.937 132.991L829.056 143.781L808.688 155.509L788.872 168.148L769.653 181.677L751.067 196.063L733.153 211.279L715.949 227.294L699.492 244.071L683.81 261.578L668.943 279.78L654.917 298.641L641.76 318.115L629.503 338.17L618.17 358.76L607.785 379.843L598.364 401.375L589.935 423.312L582.507 445.612L576.104 468.224L570.729 491.105L566.403 514.204L563.132 537.478L560.919 560.875" stroke="#A1A1A1" stroke-width="8" stroke-linecap="round" stroke-linejoin="bevel"/>
<path d="M1176.11 2063.74L1198.88 2058.76L1221.4 2052.76L1243.63 2045.76L1265.52 2037.76L1287.03 2028.78L1308.11 2018.84L1328.72 2007.96L1348.83 1996.17L1368.38 1983.48L1387.34 1969.92L1405.67 1955.53L1423.33 1940.32L1440.29 1924.34L1456.51 1907.6L1471.96 1890.16L1486.61 1872.03L1500.44 1853.26L1513.39 1833.89L1525.47 1813.96L1536.63 1793.5L1546.87 1772.56L1556.15 1751.18L1564.45 1729.41L1571.77 1707.28L1578.08 1684.85L1583.38 1662.15L1587.65 1639.24L1590.88 1616.16L1593.07 1592.96" stroke="#A1A1A1" stroke-width="8" stroke-linecap="round" stroke-linejoin="bevel"/>
<path d="M1556.07 1555.96L1578.87 1555.42L1601.61 1553.79L1624.25 1551.08L1646.74 1547.3L1669.01 1542.46L1691.04 1536.55L1712.75 1529.61L1734.14 1521.64L1755.07 1512.67L1775.58 1502.71L1795.61 1491.78L1815.08 1479.91L1833.97 1467.13L1852.21 1453.47L1869.8 1438.95L1886.67 1423.62L1902.8 1407.49L1918.12 1390.62L1932.66 1373.04L1946.32 1354.79L1959.11 1335.91L1970.95 1316.44L1981.89 1296.43L1991.85 1275.92L2000.84 1254.96L2008.79 1233.59L2015.74 1211.88L2021.65 1189.85L2026.48 1167.58L2030.28 1145.09L2032.97 1122.45L2034.59 1099.71L2035.15 1076.92L2034.59 1054.12L2032.97 1031.38L2030.28 1008.74L2026.48 986.259L2021.65 963.978L2015.74 941.956L2008.79 920.237L2000.84 898.874L1991.85 877.917L1981.89 857.408L1970.95 837.396L1959.11 817.928L1946.32 799.045L1932.66 780.794L1918.12 763.212L1902.8 746.341L1886.67 730.219L1869.8 714.883L1852.21 700.364L1833.97 686.702L1815.08 673.923L1795.61 662.056L1775.58 651.129L1755.07 641.167L1734.14 632.191L1712.75 624.224L1691.04 617.28L1669.01 611.38L1646.74 606.532L1624.25 602.751L1601.61 600.045L1578.87 598.419L1556.07 597.877" stroke="#666666" stroke-width="8" stroke-linecap="round" stroke-linejoin="bevel"/>
<path d="M1593.07 1592.95L1616.46 1590.74L1639.73 1587.47L1662.84 1583.14L1685.72 1577.77L1708.34 1571.36L1730.64 1563.94L1752.57 1555.51L1774.12 1546.09L1795.22 1535.71L1815.79 1524.37L1835.85 1512.12L1855.32 1498.96L1874.18 1484.94L1892.38 1470.07L1909.91 1454.39L1926.69 1437.94L1942.69 1420.73L1957.91 1402.82L1972.28 1384.24L1985.82 1365.01L1998.47 1345.2L2010.19 1324.84L2021 1303.96L2030.83 1282.61L2039.69 1260.84L2047.54 1238.69L2054.36 1216.2L2060.17 1193.43L2064.94 1170.42L2068.67 1147.21L2071.33 1123.86L2072.95 1100.41L2073.47 1076.92L2072.95 1053.42L2071.33 1029.97L2068.67 1006.62L2064.94 983.415L2060.17 960.401L2054.36 937.63L2047.54 915.144L2039.69 892.993L2030.83 871.222L2021 849.875L2010.19 828.996L1998.47 808.63L1985.82 788.815L1972.28 769.598L1957.91 751.013L1942.69 733.1L1926.69 715.897L1909.91 699.438L1892.38 683.761L1874.18 668.895L1855.32 654.87L1835.85 641.714L1815.79 629.457L1795.22 618.125L1774.12 607.738L1752.57 598.32L1730.64 589.89L1708.34 582.465L1685.72 576.059L1662.84 570.688L1639.73 566.362L1616.46 563.088L1593.07 560.875" stroke="#A1A1A1" stroke-width="8" stroke-linecap="round" stroke-linejoin="bevel"/>
<path d="M492.39 492.354L497.446 467.415L503.564 442.72L510.736 418.307L518.943 394.222L528.18 370.513L538.419 347.223L549.648 324.39L561.844 302.057L574.984 280.27L589.05 259.066L604.007 238.482L619.832 218.557L636.497 199.33L653.97 180.833L672.218 163.101L691.21 146.168L710.909 130.063L731.28 114.814L752.284 100.455L773.885 87.0067L796.042 74.4969L818.713 62.9443L841.863 52.3749L865.44 42.8083L889.404 34.2575L913.715 26.7418L938.324 20.2742L963.19 14.8679L988.26 10.5292L1013.5 7.26779L1038.85 5.09035L1064.27 4H1089.72L1115.14 5.09035L1140.49 7.26779L1165.73 10.5292L1190.8 14.8679L1215.67 20.2742L1240.28 26.7418L1264.59 34.2575L1288.55 42.8083L1312.13 52.3749L1335.28 62.9443L1357.95 74.4969L1380.1 87.0067L1401.71 100.455L1422.71 114.814L1443.08 130.063L1462.78 146.168L1481.77 163.101L1500.02 180.833L1517.49 199.33L1534.16 218.557L1549.99 238.482L1564.94 259.066L1579.01 280.27L1592.15 302.057L1604.34 324.39L1615.59 347.223L1625.81 370.513L1635.06 394.222L1643.27 418.307L1650.44 442.72L1656.54 467.415L1661.61 492.354" stroke="#666666" stroke-width="8" stroke-linecap="round" stroke-linejoin="bevel"/>
<path d="M1296.98 4847.9L1297.41 4840.6" stroke="#666666" stroke-width="8" stroke-linecap="round" stroke-linejoin="bevel"/>
<path d="M856.577 4840.6L857.008 4847.9" stroke="#666666" stroke-width="8" stroke-linecap="round" stroke-linejoin="bevel"/>
<path d="M597.919 597.876L575.123 598.418L552.38 600.044L529.74 602.75L507.253 606.531L484.974 611.379L462.948 617.279L441.23 624.223L419.866 632.19L398.904 641.166L378.393 651.128L358.382 662.055L338.91 673.922L320.029 686.701L301.774 700.363L284.191 714.882L267.318 730.218L251.195 746.34L235.857 763.211L221.341 780.793L207.675 799.044L194.895 817.927L183.026 837.395L172.099 857.407L162.136 877.916L153.159 898.873L145.192 920.236L138.25 941.955L132.347 963.977L127.502 986.258L123.721 1008.74L121.011 1031.38L119.385 1054.12L118.843 1076.92L119.385 1099.71L121.011 1122.45L123.721 1145.09L127.502 1167.58L132.347 1189.85L138.25 1211.88L145.192 1233.59L153.159 1254.96L162.136 1275.92L172.099 1296.43L183.026 1316.44L194.895 1335.91L207.675 1354.79L221.341 1373.04L235.857 1390.62L251.195 1407.49L267.318 1423.62L284.191 1438.95L301.774 1453.47L320.029 1467.13L338.91 1479.91L358.382 1491.78L378.393 1502.7L398.904 1512.67L419.866 1521.64L441.23 1529.61L462.948 1536.55L484.974 1542.45L507.253 1547.3L529.74 1551.08L552.38 1553.79L575.123 1555.42L597.919 1555.96" stroke="#666666" stroke-width="8" stroke-linecap="round" stroke-linejoin="bevel"/>
<path d="M597.919 1555.96L598.461 1578.75L600.087 1601.49L602.796 1624.13L606.577 1646.62L611.423 1668.89L617.326 1690.92L624.268 1712.63L632.235 1734L641.212 1754.96L651.175 1775.47L662.102 1795.48L673.97 1814.95L686.751 1833.83L700.417 1852.08L714.933 1869.66L730.271 1886.53L746.394 1902.66L763.266 1917.99L780.85 1932.51L799.105 1946.17L817.986 1958.95L837.458 1970.82L857.469 1981.75L877.98 1991.71L898.941 2000.68L920.306 2008.65L942.024 2015.59L964.05 2021.49L986.329 2026.34L1008.82 2030.12L1031.46 2032.83L1054.2 2034.46L1076.99 2035L1099.79 2034.46L1122.53 2032.83L1145.17 2030.12L1167.66 2026.34L1189.94 2021.49L1211.97 2015.59L1233.69 2008.65L1255.05 2000.68L1276.01 1991.71L1296.52 1981.75L1316.53 1970.82L1336 1958.95L1354.89 1946.17L1373.14 1932.51L1390.72 1917.99L1407.6 1902.66L1423.72 1886.53L1439.06 1869.66L1453.57 1852.08L1467.24 1833.83L1480.02 1814.95L1491.89 1795.48L1502.81 1775.47L1512.78 1754.96L1521.75 1734L1529.72 1712.63L1536.67 1690.92L1542.57 1668.89L1547.41 1646.62L1551.2 1624.13L1553.9 1601.49L1555.53 1578.75L1556.07 1555.96" stroke="#666666" stroke-width="8" stroke-linecap="round" stroke-linejoin="bevel"/>
<path d="M799.131 799.072V981.107" stroke="#666666" stroke-width="8" stroke-linecap="round" stroke-linejoin="bevel"/>
<path d="M799.131 799.072H914.111" stroke="#666666" stroke-width="8" stroke-linecap="round" stroke-linejoin="bevel"/>
<path d="M914.111 981.107H799.131" stroke="#666666" stroke-width="8" stroke-linecap="round" stroke-linejoin="bevel"/>
<path d="M914.11 799.072V981.107" stroke="#666666" stroke-width="8" stroke-linecap="round" stroke-linejoin="bevel"/>
</svg>
